<svg xmlns="http://www.w3.org/2000/svg" viewBox="0 0 960 690" role="img" aria-labelledby="title desc">
<title id="title">完成品SNSの画面地図</title>
<desc id="desc">設計上の画面を並べた地図。今回確認する投稿詳細、プロフィールと編集、通知を青枠で示す。実画面の撮影ではない。</desc>
<rect width="960" height="690" fill="#f5f4ef"/>
<g font-family="sans-serif"><text x="48" y="55" font-size="27" fill="#182c39">完成品SNSの地図</text><text x="48" y="88" font-size="17" fill="#435460">青い枠が今回の確認場所</text>
<rect x="48" y="120" width="415" height="62" rx="10" fill="#fff" stroke="#c7cdd0" stroke-width="1"/>
<text x="69" y="159" font-size="21" fill="#182c39">ログイン・新規登録</text>
<rect x="498" y="120" width="415" height="62" rx="10" fill="#fff" stroke="#c7cdd0" stroke-width="1"/>
<text x="519" y="159" font-size="21" fill="#182c39">メール確認待ち</text>
<rect x="48" y="201" width="415" height="62" rx="10" fill="#fff" stroke="#c7cdd0" stroke-width="1"/>
<text x="69" y="240" font-size="21" fill="#182c39">プロフィール初期設定</text>
<rect x="498" y="201" width="415" height="62" rx="10" fill="#fff" stroke="#c7cdd0" stroke-width="1"/>
<text x="519" y="240" font-size="21" fill="#182c39">パスワード再発行・再設定</text>
<rect x="48" y="282" width="415" height="62" rx="10" fill="#fff" stroke="#c7cdd0" stroke-width="1"/>
<text x="69" y="321" font-size="21" fill="#182c39">タイムライン</text>
<rect x="498" y="282" width="415" height="62" rx="10" fill="#fff" stroke="#c7cdd0" stroke-width="1"/>
<text x="519" y="321" font-size="21" fill="#182c39">投稿作成</text>
<rect x="48" y="363" width="415" height="62" rx="10" fill="#e4f0f9" stroke="#185a86" stroke-width="3"/>
<text x="69" y="402" font-size="21" fill="#182c39">投稿詳細</text>
<rect x="498" y="363" width="415" height="62" rx="10" fill="#e4f0f9" stroke="#185a86" stroke-width="3"/>
<text x="519" y="402" font-size="21" fill="#182c39">プロフィール・編集</text>
<rect x="48" y="444" width="415" height="62" rx="10" fill="#fff" stroke="#c7cdd0" stroke-width="1"/>
<text x="69" y="483" font-size="21" fill="#182c39">フォロー中・フォロワー</text>
<rect x="498" y="444" width="415" height="62" rx="10" fill="#e4f0f9" stroke="#185a86" stroke-width="3"/>
<text x="519" y="483" font-size="21" fill="#182c39">通知</text>
<rect x="48" y="525" width="415" height="62" rx="10" fill="#fff" stroke="#c7cdd0" stroke-width="1"/>
<text x="69" y="564" font-size="21" fill="#182c39">検索・ハッシュタグ一覧</text>
<rect x="498" y="525" width="415" height="62" rx="10" fill="#fff" stroke="#c7cdd0" stroke-width="1"/>
<text x="519" y="564" font-size="21" fill="#182c39">ブックマーク一覧</text>
<text x="48" y="641" font-size="18" fill="#435460">画像の保存先も確認：アイコン・ヘッダー・投稿画像</text>
<text x="48" y="674" font-size="16" fill="#435460">カメラとWeb対応は後の章で扱います。これは設計図です。</text></g></svg>
